<svg width="80" height="80" viewBox="0 0 80 80" fill="none" xmlns="http://www.w3.org/2000/svg">
<path fill-rule="evenodd" clip-rule="evenodd" d="M1.20892 12.3241C0.0373441 11.1525 0.0373428 9.25299 1.20892 8.08142L8.08143 1.20891C9.253 0.0373367 11.1525 0.0373383 12.3241 1.20891L39.8432 28.728L67.3622 1.20898C68.5338 0.0374072 70.4333 0.0374058 71.6049 1.20898L78.4774 8.08149C79.649 9.25306 79.649 11.1526 78.4774 12.3241L50.9583 39.8432L78.4774 67.3622C79.649 68.5338 79.649 70.4333 78.4774 71.6049L71.6049 78.4774C70.4333 79.6489 68.5338 79.6489 67.3622 78.4774L39.8432 50.9583L12.3241 78.4774C11.1525 79.649 9.25299 79.649 8.08142 78.4774L1.20891 71.6049C0.0373363 70.4334 0.0373389 68.5339 1.20891 67.3623L28.728 39.8432L1.20892 12.3241Z" fill="#949494"/>
</svg>
