<svg width="201" height="35" viewBox="0 0 201 35" fill="none" xmlns="http://www.w3.org/2000/svg">
<path fill-rule="evenodd" clip-rule="evenodd" d="M18.8448 26.7597L7.76812 34.0906L11.3174 21.2907L0.922332 13.0215L14.1926 12.4416L18.8448 0L23.4971 12.4416L36.7674 13.0215L26.3723 21.2907L29.9216 34.0906L18.8448 26.7597Z" fill="#F85036"/>
<path fill-rule="evenodd" clip-rule="evenodd" d="M59.998 26.7597L48.9212 34.0906L52.4705 21.2907L42.0754 13.0215L55.3457 12.4416L59.998 0L64.6502 12.4416L77.9205 13.0215L67.5254 21.2907L71.0747 34.0906L59.998 26.7597Z" fill="#F85036"/>
<path fill-rule="evenodd" clip-rule="evenodd" d="M101.151 26.7597L90.0744 34.0906L93.6237 21.2907L83.2286 13.0215L96.4989 12.4416L101.151 0L105.803 12.4416L119.074 13.0215L108.679 21.2907L112.228 34.0906L101.151 26.7597Z" fill="#F85036"/>
<path fill-rule="evenodd" clip-rule="evenodd" d="M142.304 26.7597L131.228 34.0906L134.777 21.2907L124.382 13.0215L137.652 12.4416L142.304 0L146.957 12.4416L160.227 13.0215L149.832 21.2907L153.381 34.0906L142.304 26.7597Z" fill="#F85036"/>
<path opacity="0.4" fill-rule="evenodd" clip-rule="evenodd" d="M183 26.7597L171.923 34.0906L175.472 21.2907L165.077 13.0215L178.348 12.4416L183 0L187.652 12.4416L200.922 13.0215L190.527 21.2907L194.077 34.0906L183 26.7597Z" fill="#F85036"/>
<path fill-rule="evenodd" clip-rule="evenodd" d="M183.457 26.7597L172.381 34.0906L175.93 21.2907L165.535 13.0215L178.805 12.4416L183.457 0V26.7597Z" fill="#F85036"/>
</svg>
